# xmcd
#
# Track frame offsets:
#	150
#	15715
#	29319
#	46530
#	61725
#	78664
#	95875
#	111495
#	123701
#	135045
#	149946
#	167893
#	182388
#	197774
#	212487
#	228781
#	245127
#	264132
#
# Disc length: 3667 seconds
#
# Revision: 4
# Processed by: cddbd v1.5.1PL0 Copyright (c) Steve Scherf et al.
# Submitted via: audiograbber 1.83.01
#
DISCID=f90e5112
DTITLE=2004-05 Country Radio - 2004-05 Country Radio
DYEAR=2004
DGENRE=Country
TTITLE0=Terri Clark - Girls Lie Too
TTITLE1=Shannon Lawson - Smokin' Grass
TTITLE2=Martina McBride - How Far
TTITLE3=Trent Willmon - Beer Man
TTITLE4=Sara Evans - Suds In The Bucket
TTITLE5=Clint Black - Boogie Man, The
TTITLE6=Phil Vassar - In A Real Love
TTITLE7=Michelle Poe - Just One Of The Boys
TTITLE8=Craig Morgan - Look At Us
TTITLE9=Patty Loveless - I Wanna Believe
TTITLE10=Jessi Alexander - Honeysuckle Sweet
TTITLE11=Steve Holy - Put Your Best Dress On
TTITLE12=Josh Turner - What It Ain't
TTITLE13=McHayes - Tulsa Time
TTITLE14=Mary Chapin Carpenter - What Would You Say To Me
TTITLE15=Adrienne Young and Little Sadie - Home Remedy
TTITLE16=Daniel Lee Martin - I  Can't Let Go
TTITLE17=Just Bluegrass - Three Little Things
EXTD=
EXTT0=
EXTT1=
EXTT2=
EXTT3=
EXTT4=
EXTT5=
EXTT6=
EXTT7=
EXTT8=
EXTT9=
EXTT10=
EXTT11=
EXTT12=
EXTT13=
EXTT14=
EXTT15=
EXTT16=
EXTT17=
PLAYORDER=
